<?xml version="1.0" standalone="no"?>
<!DOCTYPE svg PUBLIC "-//W3C//DTD SVG 20010904//EN"
 "http://www.w3.org/TR/2001/REC-SVG-20010904/DTD/svg10.dtd">
<svg version="1.0" xmlns="http://www.w3.org/2000/svg"
 width="1056.000000pt" height="1056.000000pt" viewBox="0 0 1056.000000 1056.000000"
 preserveAspectRatio="xMidYMid meet">
<metadata>
Created by potrace 1.14, written by Peter Selinger 2001-2017
</metadata>
<g transform="translate(0.000000,1056.000000) scale(0.100000,-0.100000)"
fill="#000000" stroke="none">
<path d="M3395 9401 c-27 -15 -79 -40 -115 -55 -36 -16 -101 -47 -145 -68 -44
-22 -96 -40 -115 -41 l-35 -2 3 70 c2 38 5 73 8 76 2 4 0 11 -6 14 -12 7 -91
-40 -142 -85 -18 -17 -37 -30 -41 -30 -5 0 -15 -7 -23 -15 -8 -8 -56 -43 -105
-77 -50 -35 -99 -69 -110 -77 -17 -12 -19 -11 -20 10 -1 42 -5 69 -11 75 -18
18 -230 -237 -226 -271 5 -31 54 -30 154 5 49 17 101 33 116 35 16 3 43 7 61
10 17 3 43 7 57 10 113 20 516 28 635 12 155 -21 242 -52 401 -145 39 -23 78
-42 86 -42 14 0 31 51 54 160 9 41 11 47 14 58 1 4 2 10 1 14 0 4 3 18 9 32 5
13 12 49 15 79 6 49 4 56 -15 70 -42 29 -139 8 -271 -58 -63 -32 -126 -40
-158 -19 -22 15 -23 20 -18 87 6 77 12 113 26 150 6 16 6 28 -2 36 -15 15 -24
13 -82 -18z"/>
<path d="M2953 8933 c-7 -3 -13 -17 -13 -31 0 -46 29 -55 180 -58 162 -3 205
-8 279 -37 31 -12 58 -22 61 -22 24 -4 194 -105 210 -125 3 -3 32 -27 65 -53
81 -63 215 -223 215 -256 0 -5 4 -11 8 -13 11 -4 56 -83 122 -213 52 -103 72
-147 98 -220 14 -36 62 -229 67 -265 2 -14 8 -46 14 -73 22 -93 21 -84 46
-567 12 -223 12 -227 41 -390 17 -97 25 -121 100 -278 34 -71 68 -126 92 -150
78 -77 178 -78 174 -2 -1 18 -12 74 -25 125 -8 33 -15 67 -15 75 0 8 -3 26 -6
40 -10 41 -18 103 -22 155 -5 74 -21 204 -40 320 -6 41 -11 80 -19 145 -3 30
-7 66 -10 80 -2 14 -7 59 -11 100 -8 86 -12 115 -14 115 -1 0 -4 16 -6 35 -3
19 -12 62 -20 95 -9 33 -18 71 -20 85 -3 14 -8 34 -11 45 -4 11 -8 22 -8 25
-24 98 -113 357 -151 436 -19 39 -34 76 -34 83 0 6 -4 11 -8 11 -5 0 -16 17
-25 38 -25 57 -130 211 -179 262 -147 155 -357 319 -493 384 -51 24 -137 53
-195 65 -30 6 -66 14 -80 16 -14 3 -87 8 -163 11 -77 2 -151 6 -165 8 -15 1
-33 1 -39 -1z"/>
<path d="M2548 8890 c-41 -7 -81 -37 -72 -52 4 -6 22 -16 40 -24 19 -8 34 -20
34 -27 0 -43 -97 -188 -130 -193 -3 0 -12 -4 -20 -7 -58 -24 -134 -12 -209 32
-27 16 -56 28 -65 27 -51 -7 -188 -127 -216 -189 -20 -43 -26 -92 -12 -101 4
-2 32 2 62 11 30 8 64 16 75 18 11 2 34 6 50 9 90 18 158 17 239 -4 46 -12 90
-23 97 -24 8 -2 25 -6 39 -9 43 -11 92 -18 176 -24 98 -7 168 8 223 47 38 28
97 103 103 131 2 8 6 16 10 19 4 3 9 15 11 25 1 11 5 25 8 30 10 17 3 102 -11
137 -25 61 -69 106 -137 140 -60 29 -76 33 -162 34 -53 1 -113 -2 -133 -6z"/>
<path d="M2289 8784 c-18 -5 -45 -59 -45 -89 1 -27 48 -48 108 -48 40 0 54 5
79 29 43 41 38 84 -11 102 -27 9 -105 13 -131 6z"/>
<path d="M3124 8773 c-12 -2 -29 -12 -38 -22 -15 -17 -15 -20 1 -39 17 -20 34
-24 133 -37 17 -2 47 -9 68 -16 37 -11 173 -78 182 -89 3 -3 21 -17 40 -30 19
-13 48 -38 63 -55 39 -42 117 -152 117 -163 0 -6 4 -12 8 -14 11 -4 95 -128
87 -128 -4 0 3 -13 14 -29 12 -16 21 -32 21 -36 0 -4 7 -23 16 -43 33 -76 45
-111 74 -211 25 -86 32 -113 44 -186 3 -16 8 -41 10 -55 8 -38 16 -110 21
-186 3 -38 8 -89 11 -114 2 -25 7 -70 9 -100 4 -58 13 -141 20 -200 5 -43 15
-141 20 -195 5 -51 13 -108 22 -165 8 -51 8 -49 15 -70 3 -8 18 -51 33 -95 55
-163 120 -260 200 -296 78 -36 89 -22 61 83 -12 46 -28 89 -91 243 -5 11 -9
22 -10 25 -21 81 -32 142 -41 215 -3 28 -7 61 -10 75 -3 24 -13 155 -19 285
-2 33 -4 60 -4 60 -1 0 -4 41 -6 90 -3 50 -7 101 -10 115 -2 14 -7 52 -11 85
-12 111 -15 129 -40 250 -14 68 -57 220 -73 260 -17 43 -134 273 -163 320 -71
118 -192 252 -284 316 -138 95 -390 173 -490 152z"/>
<path d="M3093 8642 c-6 -4 -14 -19 -18 -33 -6 -23 -2 -28 32 -41 21 -9 63
-21 93 -28 80 -19 127 -47 195 -115 71 -71 98 -110 152 -225 114 -241 129
-301 138 -565 2 -66 7 -196 10 -290 7 -240 21 -456 31 -510 28 -144 30 -153
50 -224 9 -34 19 -61 23 -61 3 0 12 -13 19 -28 22 -51 147 -170 184 -176 7 -1
18 -5 25 -9 14 -9 40 0 46 17 3 6 -6 39 -20 71 -24 58 -58 178 -69 240 -2 17
-7 38 -10 47 -5 16 -7 31 -19 138 -3 30 -7 64 -10 75 -2 11 -7 46 -10 78 -4
32 -8 68 -11 80 -6 29 -19 188 -29 357 -4 52 -8 102 -10 110 -3 8 -7 33 -10
55 -25 173 -111 483 -136 493 -5 2 -9 10 -9 17 0 12 -31 69 -111 205 -7 13
-20 30 -26 38 -7 7 -13 16 -13 20 0 13 -88 100 -131 129 -93 64 -211 113 -305
127 -11 2 -25 6 -30 9 -6 3 -15 3 -21 -1z"/>
<path d="M3076 8514 c-25 -24 -20 -39 37 -106 148 -176 228 -330 261 -503 3
-16 9 -46 12 -65 10 -50 9 -257 -1 -385 -5 -60 -9 -184 -9 -275 -1 -159 0
-168 28 -240 50 -128 89 -192 151 -251 93 -86 140 -113 156 -88 13 20 5 57
-30 131 -30 63 -35 82 -46 173 -4 28 -8 57 -10 65 -12 45 -17 157 -20 445 -3
316 -6 362 -25 460 -5 28 -11 59 -13 70 -2 11 -7 27 -10 35 -5 15 -16 58 -17
72 0 4 -16 41 -34 82 -43 93 -102 181 -153 226 -182 163 -238 194 -277 154z"/>
<path d="M2996 8374 c-9 -8 -15 -19 -13 -22 2 -4 20 -42 41 -84 41 -82 47
-112 48 -228 0 -65 -5 -110 -26 -216 -24 -121 -278 -482 -436 -619 -19 -17
-66 -55 -105 -85 -38 -30 -83 -67 -100 -83 -16 -15 -54 -42 -83 -58 -88 -51
-97 -95 -24 -126 89 -39 100 -42 164 -39 51 1 70 7 88 24 26 24 40 28 40 10 0
-10 57 -67 69 -69 3 0 17 -3 31 -6 36 -8 109 -7 155 1 58 10 74 31 84 112 11
85 16 105 34 140 18 35 24 24 32 -66 5 -63 16 -127 28 -175 1 -5 6 -16 10 -22
5 -7 6 -13 2 -13 -6 0 39 -88 58 -112 27 -34 54 -22 71 30 9 27 18 58 20 69 3
11 16 68 30 126 27 110 44 190 51 242 3 17 7 44 9 61 6 38 14 168 22 389 8
200 7 254 -2 315 -4 25 -8 50 -9 55 -1 8 -15 76 -20 95 -20 79 -76 185 -153
293 -58 81 -83 94 -116 61z"/>
<path d="M2880 8321 c-8 -6 -18 -7 -22 -5 -4 3 -8 2 -8 -3 0 -13 -59 -36 -75
-29 -8 3 -17 1 -20 -3 -10 -18 -213 -2 -316 25 -65 16 -82 17 -75 6 2 -4 1
-14 -4 -21 -5 -8 0 -37 11 -70 11 -31 19 -57 19 -58 0 -2 0 -4 1 -5 0 -2 2
-10 4 -18 49 -197 84 -272 167 -361 45 -48 90 -70 146 -70 139 -1 238 114 269
310 8 51 8 163 0 201 -3 14 -6 34 -6 46 -1 26 -36 64 -59 64 -9 0 -24 -4 -32
-9z"/>
<path d="M7126 7562 c-2 -1 -25 -4 -52 -7 -92 -8 -204 -24 -215 -31 -4 -2 -27
-6 -50 -9 -24 -3 -62 -11 -84 -17 -22 -6 -44 -12 -50 -14 -48 -11 -234 -83
-309 -119 -91 -44 -248 -140 -254 -157 -2 -4 -10 -8 -18 -8 -8 0 -14 -4 -14
-10 0 -5 -6 -10 -14 -10 -8 0 -16 -3 -18 -7 -1 -5 -37 -35 -78 -68 -41 -32
-118 -102 -170 -155 -173 -173 -290 -335 -344 -476 -37 -96 -38 -147 -5 -164
24 -13 52 13 113 110 89 139 273 331 456 477 58 45 110 87 117 93 6 5 47 31
90 57 43 26 80 50 83 53 12 12 161 81 225 104 64 23 155 47 230 60 138 25 458
25 600 1 66 -11 250 -52 250 -55 0 -2 11 -4 50 -13 34 -8 169 -64 211 -87 106
-60 176 -126 237 -222 38 -61 77 -142 77 -161 0 -7 4 -17 8 -22 10 -12 29 -92
38 -160 8 -63 11 -306 3 -310 -3 -2 -4 -18 -3 -34 1 -17 -2 -34 -7 -37 -5 -3
-7 -9 -4 -15 3 -5 1 -35 -4 -66 -6 -32 -13 -71 -15 -88 -3 -16 -21 -93 -40
-170 -60 -244 -78 -350 -80 -462 -1 -24 -3 -43 -6 -43 -10 0 -15 -387 -6 -460
19 -143 91 -365 133 -408 7 -7 13 -18 13 -24 0 -16 93 -129 143 -174 68 -61
96 -84 105 -84 5 0 17 -8 28 -18 10 -10 54 -35 98 -55 129 -62 196 -72 196
-31 0 9 -20 52 -45 95 -74 129 -143 292 -159 379 -4 22 -18 88 -30 145 -2 11
-7 40 -10 65 -3 25 -8 54 -10 65 -2 11 -7 56 -11 100 -3 43 -9 83 -11 87 -3 4
-1 8 4 8 6 0 7 14 3 33 -12 53 -5 446 8 520 7 37 16 69 21 72 4 2 13 -15 19
-38 15 -50 82 -177 93 -177 4 0 8 -6 8 -13 0 -7 33 -51 73 -97 108 -127 164
-146 171 -59 2 33 -32 145 -68 221 -10 20 -19 42 -20 50 -2 7 -8 25 -14 39
-33 81 -37 118 -38 404 -1 160 -4 301 -8 315 -4 14 -9 36 -12 50 -3 14 -12 50
-21 80 -9 30 -18 60 -19 65 -15 74 -186 451 -215 475 -3 3 -17 23 -31 45 -96
154 -328 354 -508 437 -119 56 -123 58 -145 61 -11 2 -27 6 -35 10 -54 19
-188 43 -305 53 -79 7 -344 12 -349 6z"/>
<path d="M7017 7234 c-1 -1 -31 -4 -67 -8 -78 -7 -146 -18 -195 -30 -96 -25
-143 -38 -160 -46 -16 -7 -50 -19 -75 -25 -5 -2 -12 -5 -105 -42 -59 -25 -211
-100 -230 -115 -5 -5 -39 -29 -75 -55 -139 -100 -322 -292 -479 -503 -47 -63
-93 -124 -103 -134 -10 -11 -18 -22 -19 -25 0 -3 -2 -14 -4 -23 -6 -34 19 -39
86 -18 82 25 141 62 209 134 176 185 306 306 328 306 6 0 12 4 14 10 8 25 303
191 363 205 11 2 40 9 65 15 97 24 194 34 320 34 200 0 320 -23 457 -88 183
-87 325 -317 384 -621 17 -88 19 -107 25 -255 9 -237 12 -297 19 -363 4 -34 7
-69 7 -77 0 -8 4 -37 9 -65 5 -27 12 -63 15 -78 7 -41 58 -150 77 -166 9 -7
23 -11 31 -8 15 6 42 56 51 92 3 11 11 43 19 70 7 28 16 68 19 90 3 22 13 76
23 120 9 44 18 87 18 95 1 9 6 21 10 28 4 7 5 16 2 19 -3 3 -1 12 5 20 6 7 9
13 6 13 -3 0 -1 15 4 33 6 17 12 40 14 50 2 10 7 27 10 37 7 23 9 31 34 150
21 97 35 213 33 263 -2 33 -2 53 -1 70 2 19 -10 169 -16 197 -16 86 -32 134
-66 209 -32 68 -54 98 -121 165 -46 46 -105 97 -131 115 -52 35 -221 118 -253
124 -10 2 -44 11 -74 20 -124 37 -267 58 -407 61 -41 1 -75 1 -76 0z"/>
<path d="M3291 6857 c-6 -8 -13 -36 -15 -63 -3 -27 -17 -85 -31 -129 -45 -135
-44 -143 12 -206 27 -30 64 -74 83 -99 19 -25 37 -47 40 -50 4 -3 14 -16 23
-29 38 -56 103 -113 171 -151 85 -47 121 -52 111 -17 -4 12 -20 42 -35 67 -22
35 -77 166 -89 212 -3 15 -13 44 -31 93 -25 68 -34 99 -32 107 3 11 -94 174
-136 231 -38 49 -52 56 -71 34z"/>
<path d="M6695 6833 c-212 -48 -374 -122 -544 -248 -39 -28 -209 -204 -226
-232 -11 -18 -23 -33 -27 -33 -4 0 -8 -6 -8 -14 0 -8 -6 -21 -13 -28 -12 -12
-116 -212 -117 -223 0 -3 -1 -6 -1 -7 -1 -2 -3 -25 -4 -53 -2 -47 13 -96 35
-110 18 -11 60 27 124 114 35 47 90 109 122 138 67 59 185 150 218 167 11 6
39 23 61 37 97 63 234 112 345 125 40 4 165 4 195 0 177 -24 298 -145 351
-351 20 -80 24 -336 9 -650 -17 -373 -10 -473 50 -652 41 -121 93 -211 161
-280 70 -71 106 -81 144 -40 22 22 24 70 6 137 -16 59 -20 113 -19 245 0 156
10 264 34 382 6 29 12 65 14 80 2 16 4 28 5 28 2 0 3 4 29 130 27 131 29 147
36 230 4 39 8 86 11 105 9 87 4 245 -11 320 -3 14 -10 50 -15 81 -13 69 -48
160 -91 236 -31 56 -115 167 -141 188 -7 6 -34 27 -60 48 -26 21 -50 39 -55
39 -4 0 -24 7 -43 16 -19 8 -44 19 -55 23 -11 5 -67 21 -125 35 -124 32 -297
39 -395 17z"/>
<path d="M2310 6748 c-46 -13 -74 -40 -90 -88 -19 -57 -4 -70 68 -66 32 2 74
11 94 20 54 23 76 20 111 -16 69 -70 126 -76 234 -27 114 52 125 119 20 121
-18 0 -57 11 -87 23 -46 18 -70 21 -147 19 -58 -2 -107 2 -130 10 -27 9 -49
10 -73 4z"/>
<path d="M2879 6669 c-11 -16 -18 -33 -14 -38 3 -5 1 -12 -4 -16 -5 -3 -10
-13 -9 -23 0 -9 -4 -51 -8 -92 -11 -90 -10 -301 0 -350 17 -75 85 -242 107
-260 3 -3 18 -27 34 -55 15 -27 53 -85 84 -128 124 -173 153 -213 169 -234 9
-13 25 -23 34 -23 30 0 30 41 -1 163 -22 86 -49 157 -97 255 -78 160 -76 155
-104 252 -45 151 -22 212 44 120 41 -57 57 -76 114 -140 23 -26 52 -61 64 -76
37 -48 47 -56 77 -60 40 -7 43 9 16 107 -31 112 -37 127 -101 236 -51 87 -74
114 -219 253 -26 25 -61 64 -78 88 -17 23 -35 42 -41 43 -6 0 -19 2 -28 4 -11
2 -26 -9 -39 -26z"/>
<path d="M2250 6532 c-22 -7 -39 -28 -104 -126 -56 -84 -58 -90 -41 -102 23
-17 59 -18 88 -3 30 15 77 60 77 73 0 6 7 19 15 29 13 18 16 16 52 -21 35 -36
43 -40 83 -38 37 2 49 9 76 40 l32 37 57 -27 c32 -15 76 -28 98 -28 35 -1 44
3 64 33 13 19 23 49 23 67 0 29 -4 34 -23 34 -13 0 -28 -5 -33 -10 -6 -6 -34
-13 -62 -17 -50 -6 -98 10 -154 49 -14 10 -25 9 -55 -2 -57 -21 -114 -21 -148
0 -16 9 -37 15 -45 12z"/>
<path d="M3634 6518 c-23 -11 -24 -6 15 -154 15 -57 45 -128 70 -169 13 -22
24 -46 24 -52 0 -7 3 -13 7 -13 4 0 15 -16 26 -35 23 -43 92 -82 111 -62 8 8
15 60 19 147 l6 135 -67 44 c-51 33 -71 53 -83 82 -18 47 -94 93 -128 77z"/>
<path d="M6620 6399 c-41 -9 -77 -18 -80 -19 -3 -1 -8 -2 -12 -1 -11 1 -188
-89 -238 -123 -130 -85 -330 -270 -345 -317 -8 -24 19 -68 43 -71 90 -8 115 2
163 64 77 97 153 158 253 202 31 14 56 23 56 21 0 -3 12 0 27 6 15 5 61 10
102 10 227 -1 302 -58 385 -289 32 -89 35 -107 41 -203 6 -92 16 -124 44 -132
33 -8 52 15 66 84 46 216 38 461 -19 584 -73 160 -269 234 -486 184z"/>
<path d="M5211 6318 c-78 -22 -187 -111 -252 -205 -56 -81 -83 -184 -62 -234
26 -61 62 -65 94 -11 12 20 46 60 74 87 52 49 78 65 238 140 42 20 82 46 88
56 12 23 15 105 6 135 -14 41 -103 56 -186 32z"/>
<path d="M2587 6273 c-25 -19 -40 -22 -91 -18 -34 2 -78 8 -98 13 -31 8 -43 6
-80 -16 -33 -19 -60 -26 -116 -28 -85 -4 -111 -18 -147 -79 -32 -56 -33 -79
-2 -69 12 4 25 11 28 16 12 19 49 15 80 -8 52 -38 81 -32 130 26 23 28 46 50
52 50 5 0 24 -16 42 -36 29 -31 40 -36 88 -39 50 -3 58 -1 84 25 34 36 39 36
84 6 25 -17 46 -23 77 -22 23 1 44 5 48 8 12 12 1 165 -12 178 -5 4 -38 10
-73 12 -54 2 -69 -1 -94 -19z"/>
<path d="M4001 6211 c-29 -19 5 -84 123 -233 62 -77 83 -92 107 -77 24 15 12
230 -14 256 -7 7 -23 14 -37 17 -14 3 -51 14 -82 25 -64 23 -77 25 -97 12z"/>
<path d="M5605 6164 c-27 -8 -65 -17 -82 -20 -18 -4 -33 -11 -33 -16 0 -5 -4
-7 -8 -4 -22 13 -32 -42 -28 -143 4 -94 7 -106 27 -122 13 -9 28 -16 33 -14 6
2 39 9 74 15 70 14 112 47 112 87 0 14 9 59 19 101 11 43 19 86 18 97 -4 36
-49 43 -132 19z"/>
<path d="M6578 6115 c-1 -1 -23 -5 -48 -8 -49 -5 -105 -24 -167 -56 -47 -24
-166 -138 -188 -181 -13 -26 -13 -30 0 -44 17 -17 26 -15 102 21 28 14 60 26
70 28 46 8 131 18 158 19 35 1 195 -18 203 -24 1 -2 5 -3 10 -4 17 -3 102 -50
102 -56 0 -4 11 -19 24 -34 29 -35 67 -33 76 4 12 46 -31 159 -82 214 -10 11
-18 23 -18 27 0 5 -20 22 -45 39 -25 17 -45 28 -45 25 0 -3 -10 -1 -21 6 -12
6 -40 13 -63 15 -22 3 -46 6 -53 9 -6 2 -13 2 -15 0z"/>
<path d="M4335 6070 c-12 -14 -15 -27 -10 -51 7 -30 42 -99 56 -109 4 -3 18
-25 31 -50 36 -68 95 -158 147 -225 60 -77 112 -153 115 -168 1 -7 10 -29 19
-50 23 -54 75 -207 81 -238 6 -34 30 -82 50 -98 13 -11 19 -9 40 12 30 30 64
95 71 138 3 18 8 35 10 38 2 4 6 27 9 51 24 174 24 174 46 129 40 -76 50 -146
45 -304 -4 -137 -9 -222 -15 -235 -1 -3 -2 -8 -1 -12 1 -8 -7 -47 -39 -193
-30 -138 -28 -249 4 -267 28 -16 122 91 178 203 71 143 93 223 92 349 0 58 -4
125 -8 150 -12 71 -15 165 -6 180 6 9 12 7 23 -11 19 -30 68 -159 60 -159 -3
0 1 -7 8 -17 8 -9 13 -18 12 -20 -2 -1 -3 -4 -2 -5 14 -54 17 -196 5 -273 -4
-27 -9 -70 -12 -95 -3 -24 -10 -50 -16 -57 -6 -7 -8 -13 -5 -13 4 0 -2 -20
-13 -45 -11 -25 -17 -45 -15 -45 3 0 -1 -16 -9 -35 -8 -19 -13 -35 -11 -35 3
0 -2 -17 -10 -37 -19 -49 -91 -308 -100 -359 -13 -76 -13 -152 -1 -170 18 -23
51 -13 101 31 22 19 65 57 95 83 93 80 140 133 181 200 21 36 39 69 39 73 0 4
13 36 29 71 84 182 104 342 66 528 -8 40 -15 68 -20 93 -3 12 -8 38 -10 57 -2
19 -7 55 -10 79 -5 42 -4 43 13 28 19 -17 82 -146 107 -217 1 -3 5 -12 8 -20
20 -48 29 -200 16 -282 -5 -29 -11 -66 -13 -83 -9 -56 -77 -231 -95 -245 -9
-7 -60 -107 -81 -160 -21 -53 -13 -80 24 -80 17 0 36 16 66 56 23 30 67 71 98
91 110 70 192 156 233 242 17 35 31 72 32 83 1 10 4 18 7 18 3 0 4 17 3 38 -1
20 -3 72 -4 115 -2 42 -7 77 -12 77 -4 0 -6 4 -2 9 11 18 -86 254 -125 306 -8
10 -44 50 -80 89 -234 250 -287 288 -538 390 -91 37 -183 68 -202 68 -3 0 -34
11 -70 24 -36 14 -73 27 -82 29 -44 10 -81 53 -125 143 -41 86 -48 95 -88 112
-66 28 -207 72 -237 73 -16 1 -28 4 -28 7 0 3 -8 6 -17 7 -10 1 -35 4 -55 6
-27 4 -41 1 -53 -13z"/>
<path d="M5280 6040 c-80 -27 -197 -127 -238 -204 -20 -37 -20 -40 -4 -51 16
-11 65 -25 170 -49 9 -2 37 -10 62 -16 25 -7 59 -14 77 -15 29 -2 33 1 44 33
12 37 15 232 4 282 -8 36 -47 43 -115 20z"/>
<path d="M2353 6005 c-52 -23 -76 -25 -193 -11 -62 7 -84 -27 -96 -145 -9 -83
6 -84 81 -4 69 74 81 76 120 16 23 -36 55 -54 92 -54 48 1 82 21 100 58 9 19
23 35 31 35 14 0 82 -67 82 -81 0 -11 64 -38 102 -43 39 -5 67 10 105 53 20
22 24 23 53 11 44 -18 58 -2 35 42 -10 18 -26 51 -37 73 -33 71 -32 70 -84 70
-27 0 -55 -4 -61 -9 -7 -4 -13 -6 -13 -3 0 3 -16 -1 -36 -9 -62 -26 -171 -17
-219 18 -6 4 -34 -4 -62 -17z"/>
<path d="M3560 6000 c0 -18 81 -119 103 -128 4 -2 7 -8 7 -13 0 -10 62 -103
73 -107 4 -2 7 -10 7 -17 0 -7 4 -15 8 -17 5 -1 23 -25 42 -53 80 -118 222
-219 388 -274 34 -12 66 -21 71 -21 29 0 2 156 -39 222 -51 84 -3 104 90 39
69 -49 107 -60 116 -36 4 10 0 29 -9 44 -16 27 -44 100 -52 135 -16 69 -106
116 -113 59 -6 -57 -19 -78 -43 -68 -15 7 -85 97 -131 168 -35 56 -46 67 -64
67 -20 0 -33 -40 -21 -67 5 -12 7 -29 4 -37 -6 -14 -11 -14 -54 0 -26 8 -91
28 -143 43 -52 15 -117 39 -145 54 -61 33 -95 35 -95 7z"/>
<path d="M3461 5956 c-6 -7 -12 -34 -14 -59 -2 -55 -27 -77 -55 -50 -37 38
-101 83 -115 83 -45 0 -18 -63 102 -235 84 -122 225 -269 286 -300 22 -11 47
-26 56 -33 14 -11 19 -10 32 2 17 17 17 19 -5 96 -8 30 -21 80 -28 110 -19 84
-84 212 -139 272 -27 29 -57 69 -68 88 -22 39 -35 46 -52 26z"/>
<path d="M5715 5846 c-17 -7 -46 -16 -65 -19 -19 -4 -46 -9 -60 -12 -14 -3
-38 -8 -53 -10 -56 -11 -89 -43 -107 -104 -10 -34 2 -50 71 -97 30 -21 56 -40
59 -43 22 -26 112 -91 126 -91 9 0 38 13 63 28 73 45 156 81 213 94 60 13 86
32 93 68 3 14 8 39 12 55 4 17 6 33 5 38 -1 4 3 7 8 7 7 0 7 6 0 20 -6 11 -7
20 -3 20 4 0 -1 6 -12 13 -11 8 -40 15 -65 15 -25 1 -62 9 -83 18 -37 17 -38
17 -65 -9 -32 -31 -44 -33 -62 -11 -23 27 -44 33 -75 20z"/>
<path d="M6440 5832 c-54 -3 -232 -63 -259 -86 -32 -29 -45 -64 -29 -83 9 -11
26 -13 77 -8 173 16 316 -73 490 -305 31 -41 61 -81 68 -87 6 -7 27 -39 47
-71 35 -58 72 -87 94 -73 22 13 41 89 37 148 -5 73 -14 161 -19 188 -2 11 -7
38 -11 60 -7 42 -19 83 -38 125 -17 39 -126 141 -172 161 -60 26 -179 39 -285
31z"/>
<path d="M2181 5740 c-73 -48 -88 -67 -101 -130 -7 -32 -9 -63 -6 -69 12 -19
34 -12 56 19 26 37 36 37 73 3 23 -23 37 -28 78 -27 39 0 56 7 89 33 54 43 74
45 126 15 51 -30 98 -33 142 -10 44 23 91 20 137 -8 42 -26 75 -26 125 -3 51
24 63 57 43 118 -26 77 -41 81 -102 26 -60 -53 -113 -56 -216 -14 -48 20 -71
24 -115 20 -30 -3 -86 -5 -123 -5 -63 0 -71 2 -101 31 -39 38 -49 38 -105 1z"/>
<path d="M6146 5588 c-10 -16 -15 -47 -15 -98 1 -41 -6 -93 -13 -114 l-14 -39
45 -24 c28 -14 70 -25 106 -27 33 -3 72 -8 88 -13 32 -10 157 -100 157 -114 0
-5 7 -9 15 -9 8 0 15 -4 15 -8 0 -4 14 -13 32 -20 26 -10 35 -9 48 3 9 8 17
21 18 28 1 6 3 28 5 47 7 52 -47 193 -98 258 -28 36 -93 94 -121 107 -17 8
-57 17 -90 20 -89 9 -117 13 -141 20 -16 5 -25 1 -37 -17z"/>
<path d="M3042 5588 c-14 -14 -16 -40 -4 -53 5 -6 19 -39 31 -75 12 -36 26
-74 31 -85 5 -11 25 -60 45 -110 20 -49 41 -96 47 -102 6 -7 7 -13 2 -13 -5 0
-4 -4 1 -8 6 -4 16 -18 23 -32 20 -40 112 -193 121 -200 3 -3 19 -24 35 -48
28 -40 57 -65 81 -67 25 -3 33 19 33 92 0 76 -12 122 -58 228 -12 28 -25 59
-30 70 -19 46 -30 90 -30 125 0 22 -7 43 -16 51 -14 11 -20 9 -43 -19 -14 -18
-31 -32 -38 -32 -15 0 -103 90 -103 107 0 7 -4 13 -9 13 -5 0 -25 33 -44 73
-40 83 -57 103 -75 85z"/>
<path d="M5939 5543 c-29 -13 -56 -28 -59 -32 -3 -5 -32 -22 -66 -39 -97 -49
-97 -46 10 -156 70 -73 98 -96 109 -89 18 10 85 73 109 101 27 34 47 187 28
223 -14 26 -60 23 -131 -8z"/>
<path d="M4479 5496 c-16 -19 -28 -23 -56 -19 -47 7 -54 -6 -52 -95 2 -60 6
-76 25 -97 13 -14 26 -25 30 -25 3 0 22 -14 41 -30 45 -40 129 -82 156 -78 17
2 22 10 23 33 0 17 -3 38 -8 47 -4 9 -4 19 1 22 5 3 3 23 -5 43 -7 21 -13 45
-14 53 0 20 -69 153 -83 162 -21 13 -37 9 -58 -16z"/>
<path d="M2439 5491 c-13 -9 -26 -19 -29 -23 -9 -12 -87 -26 -116 -20 -15 3
-39 11 -52 18 -39 20 -86 -11 -77 -51 21 -93 38 -152 48 -163 21 -26 85 -8
128 37 22 22 39 45 39 51 0 16 43 29 58 18 6 -6 12 -23 12 -39 0 -87 125 -86
180 2 13 21 29 38 35 36 5 -2 20 -22 33 -45 25 -45 42 -58 87 -66 23 -4 34 2
62 31 18 20 33 43 33 50 0 7 4 13 9 13 5 0 16 3 24 6 10 3 19 -7 30 -34 19
-47 39 -57 67 -34 20 16 36 72 20 72 -4 0 -7 6 -8 13 0 6 -9 40 -18 75 -19 66
-29 72 -74 49 -24 -12 -43 -13 -115 -4 -16 2 -53 -2 -82 -8 -56 -13 -127 -12
-146 2 -14 11 -86 31 -108 30 -8 0 -26 -7 -40 -16z"/>
<path d="M3846 5483 c-2 -10 -2 -31 0 -48 6 -36 7 -54 4 -125 -1 -30 3 -68 9
-85 25 -63 161 -212 291 -318 51 -42 214 -135 249 -142 9 -2 36 -11 60 -19 52
-19 77 -14 85 16 12 47 -161 339 -273 462 -23 24 -131 86 -152 86 -24 0 -153
88 -198 135 -57 59 -67 64 -75 38z"/>
<path d="M3405 5447 c-4 -14 11 -68 39 -143 26 -67 46 -128 46 -136 0 -8 4
-18 8 -23 5 -6 17 -30 26 -55 66 -172 249 -360 424 -435 23 -11 42 -23 42 -29
0 -5 3 -6 7 -3 3 4 12 2 19 -4 15 -13 90 -17 101 -6 12 13 6 120 -10 177 -13
48 -25 63 -84 115 -145 128 -207 198 -243 272 -32 66 -39 74 -85 94 -27 12
-53 22 -56 21 -4 -1 -15 8 -24 18 -10 11 -23 20 -30 20 -9 0 -64 51 -133 126
-20 21 -41 17 -47 -9z"/>
<path d="M6100 5282 c0 -4 -18 -15 -39 -26 -22 -10 -55 -32 -75 -48 -39 -32
-39 -32 4 -120 11 -23 20 -48 20 -55 0 -7 4 -13 9 -13 5 0 11 -9 14 -20 5 -20
32 -26 54 -12 25 16 65 115 69 170 5 72 -6 113 -34 123 -12 5 -22 5 -22 1z"/>
<path d="M6226 5227 c-11 -9 -16 -33 -17 -84 -1 -48 -8 -81 -18 -95 -29 -41
-50 -89 -45 -102 6 -16 195 -106 222 -106 36 0 46 27 48 127 2 159 -17 211
-88 245 -49 24 -84 29 -102 15z"/>
<path d="M2648 5208 c-16 -5 -28 -13 -28 -18 0 -13 -57 -29 -82 -22 -13 3 -36
13 -53 23 -34 19 -86 17 -137 -6 -24 -10 -23 -48 5 -126 33 -93 40 -103 69
-96 14 4 28 16 31 27 5 18 12 20 53 17 37 -4 56 0 81 17 18 11 33 26 33 31 0
6 8 15 18 22 16 9 21 7 36 -18 11 -19 30 -32 59 -40 23 -6 49 -14 57 -17 26
-9 64 -1 117 25 48 25 53 25 76 10 47 -30 103 -39 143 -22 33 14 36 18 30 46
-3 17 -18 49 -34 72 -24 36 -34 43 -72 47 -25 3 -55 11 -67 18 -19 11 -30 8
-75 -16 -29 -16 -57 -28 -63 -28 -5 1 -35 13 -65 27 -72 33 -99 39 -132 27z"/>
<path d="M4541 5053 c-6 -11 0 -32 22 -72 16 -31 45 -85 65 -121 19 -36 55
-101 80 -145 25 -44 58 -105 74 -135 16 -30 38 -63 50 -73 32 -27 46 -5 53 88
4 44 8 91 10 105 2 14 7 45 10 70 4 25 17 87 31 139 30 118 24 133 -42 95 -73
-43 -128 -40 -231 12 -113 56 -111 56 -122 37z"/>
<path d="M3116 4945 c-45 -20 -54 -21 -91 -9 -34 10 -54 10 -103 -1 -69 -14
-118 -11 -169 10 -38 16 -84 12 -114 -9 -12 -8 -36 -11 -64 -8 -33 3 -45 0
-46 -10 0 -7 -2 -20 -4 -29 -4 -24 107 -183 137 -193 18 -6 41 -4 77 8 58 19
93 45 122 93 22 36 48 37 84 3 27 -25 89 -27 111 -2 8 9 26 30 40 47 l24 30
66 -24 c59 -21 67 -22 81 -8 15 15 9 37 -21 75 -43 54 -63 58 -130 27z"/>
<path d="M6132 4863 c-10 -21 -9 -238 1 -270 8 -21 172 -113 202 -113 18 0 38
63 32 103 -5 35 -23 81 -65 168 -39 81 -149 153 -170 112z"/>
<path d="M3581 4769 c-11 -12 -28 -47 -37 -77 -10 -30 -28 -67 -39 -80 l-22
-26 -32 45 c-55 77 -65 88 -108 114 -27 16 -62 27 -95 29 -45 4 -64 -1 -124
-30 -53 -26 -79 -33 -100 -29 -65 14 -104 13 -119 -2 -45 -45 -46 -113 -2
-193 16 -30 32 -57 36 -60 3 -3 19 -23 36 -45 134 -181 278 -314 549 -509 53
-38 99 -73 102 -78 3 -4 7 -25 9 -46 2 -21 25 -103 51 -183 79 -245 84 -267
89 -389 4 -105 11 -136 42 -177 36 -49 168 -103 253 -103 69 0 107 27 182 126
37 49 73 96 80 103 7 8 30 38 50 65 21 28 41 56 46 61 15 18 107 178 127 220
38 83 284 298 411 360 39 19 76 35 81 35 13 0 39 49 48 90 4 19 9 73 10 120 2
88 12 153 26 181 12 24 22 107 15 134 -9 37 -34 24 -127 -67 -26 -27 -52 -48
-57 -48 -20 0 -21 -34 -6 -108 19 -87 21 -149 6 -164 -7 -7 -27 -4 -64 10 -29
10 -78 25 -108 31 -107 23 -235 55 -240 61 -3 3 -14 6 -24 8 -19 3 -53 20
-157 76 -29 15 -65 30 -80 33 -36 5 -70 -27 -68 -65 2 -34 -8 -88 -22 -124
-17 -41 -46 -35 -108 22 -30 28 -56 50 -58 50 -7 0 -167 166 -193 200 -40 52
-144 221 -167 271 -12 25 -25 63 -29 85 -6 38 -30 94 -39 94 -2 0 -13 -10 -24
-21z"/>
<path d="M4224 4708 c-6 -9 3 -118 12 -160 2 -10 6 -26 8 -36 2 -10 -2 -26
-10 -36 -13 -18 -16 -18 -77 -3 -51 13 -203 81 -327 146 -9 5 -30 12 -48 16
-33 7 -39 -1 -32 -44 2 -16 132 -203 165 -237 11 -12 57 -62 103 -112 82 -89
113 -110 130 -88 13 15 21 67 11 60 -5 -3 -6 5 -1 18 9 29 8 70 -2 86 -4 7 -2
12 4 12 6 0 9 3 7 8 -3 4 -1 17 4 30 l9 23 37 -20 c21 -10 99 -42 173 -71 74
-29 144 -56 155 -60 11 -5 89 -31 173 -58 152 -49 153 -50 161 -28 5 11 4 32
-2 46 -29 74 -113 255 -119 258 -5 2 -8 8 -8 12 0 14 -56 93 -82 116 -21 19
-114 53 -163 59 -11 1 -27 5 -35 8 -8 3 -35 10 -60 16 -25 6 -75 19 -112 30
-43 12 -70 16 -74 9z"/>
<path d="M6098 4468 c-64 -113 -81 -154 -74 -181 3 -15 11 -27 17 -27 6 0 36
-12 67 -26 58 -26 148 -108 192 -174 45 -68 92 -84 104 -37 18 74 -63 311
-131 385 -42 46 -116 102 -135 102 -9 0 -27 -19 -40 -42z"/>
<path d="M5849 4194 c-93 -62 -154 -116 -203 -182 -43 -57 -70 -81 -81 -71 -4
5 -13 54 -14 81 -1 9 -8 23 -16 32 -20 20 -53 6 -80 -34 -11 -16 -40 -39 -65
-51 -56 -28 -68 -39 -64 -63 3 -23 18 -39 41 -44 10 -2 133 -4 273 -5 140 -1
260 -5 266 -9 6 -4 26 -10 44 -13 31 -5 61 -17 130 -49 13 -6 38 -26 55 -45
89 -99 120 -113 151 -66 12 19 15 37 10 70 -7 58 -45 173 -81 247 -32 68 -122
170 -165 188 -16 7 -30 16 -30 20 0 12 -50 30 -84 30 -22 0 -53 -12 -87 -36z"/>
<path d="M5243 3839 c-18 -3 -33 -5 -33 -2 0 2 -16 -12 -37 -31 -28 -28 -39
-33 -50 -25 -7 6 -13 18 -13 26 0 21 -41 32 -75 20 -50 -18 -137 -73 -194
-124 -186 -165 -203 -208 -103 -266 95 -55 107 -63 150 -102 24 -22 57 -58 72
-80 36 -52 170 -314 170 -332 0 -29 30 -71 57 -80 84 -30 218 18 293 103 27
32 40 55 84 159 7 17 21 48 31 70 9 22 18 47 20 55 5 23 37 104 47 117 18 22
26 71 15 82 -6 6 -8 11 -4 11 4 0 -8 14 -27 31 -19 17 -45 47 -58 67 -12 20
-28 42 -35 47 -7 6 -34 52 -60 104 -43 84 -52 95 -88 108 -22 8 -60 23 -85 32
-30 11 -56 15 -77 10z"/>
<path d="M5539 3777 c-13 -15 -15 -25 -8 -41 5 -11 12 -29 15 -38 4 -10 10
-18 15 -18 5 0 15 -13 24 -30 20 -39 151 -173 195 -199 44 -26 65 -26 89 -2
14 14 19 31 17 60 -4 54 -86 260 -109 273 -10 5 -64 10 -119 11 -88 2 -104 0
-119 -16z"/>
<path d="M5872 3764 c-8 -15 0 -39 33 -109 23 -49 62 -141 86 -203 45 -117 71
-149 109 -137 53 17 62 249 14 357 -31 69 -216 140 -242 92z"/>
<path d="M3732 2943 c-27 -40 -142 -275 -147 -303 -7 -34 45 -78 157 -133 104
-51 138 -60 172 -47 25 9 115 148 187 288 48 94 46 106 -26 116 -105 15 -173
37 -236 77 -57 36 -82 37 -107 2z"/>
<path d="M5510 2910 c0 -5 -5 -10 -11 -10 -6 0 -20 -11 -30 -24 -42 -54 -147
-96 -240 -96 -50 0 -63 -16 -53 -63 3 -12 8 -38 10 -57 9 -59 10 -64 24 -108
17 -55 34 -62 140 -57 86 4 98 9 105 41 2 10 13 46 25 79 46 132 80 258 74
281 -6 23 -44 35 -44 14z"/>
<path d="M3538 2535 c-7 -9 -18 -21 -24 -28 -24 -28 -186 -314 -191 -338 -4
-21 4 -32 48 -70 29 -24 71 -61 94 -82 56 -54 83 -66 160 -71 132 -10 225 33
225 102 0 32 -15 43 -66 47 -17 2 -42 6 -55 10 -51 16 -51 24 -2 87 26 33 61
75 78 92 17 18 38 44 47 58 16 25 16 26 -10 51 -22 21 -270 157 -286 157 -3 0
-11 -7 -18 -15z"/>
<path d="M5429 2456 c-2 -2 -45 -6 -96 -9 -50 -2 -96 -7 -101 -11 -6 -3 -13
-25 -17 -49 -4 -23 -9 -55 -11 -72 -3 -16 -7 -46 -10 -65 -2 -19 -10 -49 -16
-66 -6 -17 -8 -39 -5 -48 7 -17 46 -37 86 -42 13 -2 46 -9 72 -15 39 -10 62
-10 111 0 35 6 74 13 88 15 14 2 38 8 53 15 16 6 31 11 35 11 7 0 49 39 67 62
15 19 18 64 5 87 -9 19 -18 20 -88 16 -42 -2 -87 -7 -99 -9 -26 -6 -57 20 -49
40 3 8 8 35 12 61 5 40 3 51 -13 66 -11 9 -22 15 -24 13z"/>
<path d="M3234 2068 c-16 -11 -43 -40 -59 -62 -80 -111 -115 -143 -255 -236
-105 -69 -144 -89 -245 -122 -66 -22 -132 -47 -147 -56 -44 -26 -52 -69 -20
-106 15 -16 28 -18 117 -13 109 6 178 17 281 43 93 23 164 23 289 -1 124 -24
148 -32 245 -79 36 -17 70 -30 77 -28 6 1 14 -2 18 -8 7 -12 94 -13 112 -2 7
4 19 24 28 45 8 20 16 38 17 39 6 7 -48 85 -71 105 -14 12 -41 25 -59 29 -33
6 -55 24 -30 24 71 0 108 87 60 143 -26 30 -106 69 -144 70 -43 2 -44 4 -22
28 35 39 -13 126 -103 187 -39 27 -51 27 -89 0z"/>
<path d="M5148 2053 c-5 -7 -16 -36 -23 -65 -8 -29 -19 -54 -25 -56 -5 -2 -10
-9 -10 -16 0 -7 -10 -22 -22 -34 -13 -12 -36 -35 -53 -53 -30 -31 -134 -85
-210 -108 -54 -17 -207 -81 -222 -94 -17 -13 -16 -62 1 -76 13 -11 46 -10 131
4 94 15 239 28 335 29 99 0 245 -12 315 -28 17 -3 39 -8 50 -10 60 -11 185
-61 215 -85 20 -16 54 -38 76 -49 40 -20 42 -20 71 -3 43 27 60 73 43 120 -7
20 -26 49 -41 65 -16 16 -31 37 -34 47 -3 9 -20 24 -38 32 l-32 16 30 11 c67
26 80 62 46 128 -27 52 -56 67 -176 89 -54 10 -70 10 -100 -2 -16 -7 -42 -15
-57 -18 l-27 -7 6 60 c5 56 4 60 -18 70 -36 15 -151 40 -161 34 -4 -3 -8 -1
-8 4 0 14 -50 9 -62 -5z"/>
</g>
</svg>
